<svg width="24" height="24" viewBox="0 0 24 24" fill="none" xmlns="http://www.w3.org/2000/svg">
<path d="M5.7689 3.09137C8.29095 4.99132 11.0041 8.843 11.9999 10.91C12.9958 8.843 15.7091 4.99132 18.2311 3.09137C20.0513 1.72079 23 0.66002 23 4.03496C23 4.70876 22.6149 9.69723 22.3889 10.5073C21.6037 13.3224 18.742 14.0405 16.1965 13.606C20.646 14.3657 21.7777 16.8819 19.3333 19.3982C14.6909 24.1773 12.6607 18.1992 12.1409 16.6674C11.991 16.2264 12.0124 16.2163 11.859 16.6674C11.3392 18.1992 9.30914 24.1773 4.66679 19.3982C2.22229 16.8819 3.35405 14.3657 7.80347 13.606C5.25804 14.0405 2.39627 13.3224 1.61115 10.5073C1.38509 9.69723 1 4.70876 1 4.03496C1 0.66002 3.94908 1.72079 5.7689 3.09137Z" fill="#AAAAAA"/>
</svg>
