<svg width="80" height="12" viewBox="0 0 80 12" fill="none" xmlns="http://www.w3.org/2000/svg">
<path fill-rule="evenodd" clip-rule="evenodd" d="M46.1256 3.79407C45.5823 3.79407 44.8263 4.17797 44.613 4.77467H44.5703V3.87399H43.6329V9.09373H44.613V6.28725C44.613 5.32822 45.295 4.76388 45.9657 4.76388C46.179 4.76388 46.3496 4.78497 46.4879 4.83841L46.861 3.92253C46.6585 3.83721 46.4452 3.79407 46.1256 3.79407Z" fill="#AAAAAA"/>
<path fill-rule="evenodd" clip-rule="evenodd" d="M63.7852 1.34058H64.7653V9.09175H63.7852V1.34058Z" fill="#AAAAAA"/>
<path fill-rule="evenodd" clip-rule="evenodd" d="M60.738 3.79407C59.6839 3.79407 58.7033 4.38292 58.7033 5.30223C58.7033 6.19115 59.5922 6.59369 60.057 6.70744L61.1101 6.95553C61.6475 7.08987 61.8324 7.36885 61.8324 7.62724C61.8324 8.05037 61.3783 8.32739 60.7895 8.32739C60.18 8.32739 59.654 8.03027 59.3858 7.37621L58.538 7.72775C58.8376 8.4637 59.5603 9.18738 60.7797 9.18738C61.9677 9.18738 62.8036 8.49508 62.8036 7.59635C62.8036 6.97612 62.381 6.35638 61.3783 6.11859L60.3463 5.88079C59.9432 5.78812 59.675 5.61259 59.675 5.29194C59.675 4.87861 60.1697 4.65406 60.7071 4.65406C61.2028 4.65406 61.698 4.85067 61.8946 5.32577L62.7208 4.98501C62.4109 4.20984 61.6161 3.79407 60.738 3.79407Z" fill="#AAAAAA"/>
<path fill-rule="evenodd" clip-rule="evenodd" d="M68.0342 8.30582C67.538 8.30582 66.9257 8.05037 66.9257 7.51349C66.9257 7.04869 67.3728 6.54073 68.375 6.54073C69.181 6.54073 69.5699 6.84178 69.5699 6.84178C69.5699 7.66843 68.7883 8.30582 68.0342 8.30582ZM68.2407 3.79407C66.9698 3.79407 66.2539 4.53393 66.0779 4.99874L66.9458 5.37088C67.1218 4.89577 67.7342 4.67514 68.2612 4.67514C68.9741 4.67514 69.5699 5.11788 69.5699 5.9205V6.06563C69.3732 5.95188 68.8918 5.75527 68.2098 5.75527C67.0218 5.75527 65.9181 6.34609 65.9181 7.4929C65.9181 8.54656 66.8457 9.18738 67.8788 9.18738C68.7471 9.18738 69.2492 8.71963 69.5287 8.29601H69.5699V9.09373H70.4931V5.96365C70.4931 4.53785 69.4806 3.79407 68.2407 3.79407Z" fill="#AAAAAA"/>
<path fill-rule="evenodd" clip-rule="evenodd" d="M49.4594 8.3057C48.9637 8.3057 48.3508 8.05025 48.3508 7.51337C48.3508 7.04857 48.7985 6.54061 49.8007 6.54061C50.6062 6.54061 50.9955 6.84166 50.9955 6.84166C50.9955 7.66831 50.214 8.3057 49.4594 8.3057ZM49.6663 3.79395C48.3954 3.79395 47.6791 4.53381 47.5036 4.99862L48.3714 5.37075C48.5474 4.89565 49.1598 4.67502 49.6869 4.67502C50.3998 4.67502 50.9955 5.11776 50.9955 5.92038V6.06551C50.7989 5.95176 50.3169 5.75515 49.6349 5.75515C48.4469 5.75515 47.3438 6.34596 47.3438 7.49278C47.3438 8.54644 48.2714 9.18726 49.3045 9.18726C50.1723 9.18726 50.6749 8.71951 50.9538 8.29589H50.9955V9.09361H51.9187V5.96353C51.9187 4.53773 50.9063 3.79395 49.6663 3.79395Z" fill="#AAAAAA"/>
<path fill-rule="evenodd" clip-rule="evenodd" d="M75.9913 5.87491C76.1801 5.137 76.7469 4.67514 77.4607 4.67514C78.5624 4.67514 78.94 5.43658 78.9713 5.87491H75.9913ZM77.4813 3.79407C75.9707 3.79407 74.9631 5.05414 74.9631 6.49072C74.9631 8.01997 76.0124 9.18738 77.5862 9.18738C78.7723 9.18738 79.5278 8.52597 79.8318 7.80277L78.9713 7.45171C78.6987 8.09254 78.132 8.30582 77.5652 8.30582C76.7679 8.30582 75.981 7.74099 75.9285 6.67214H79.9892C79.9892 6.67214 80 6.5628 80 6.49072C80 4.85802 79.0135 3.79407 77.4813 3.79407Z" fill="#AAAAAA"/>
<path fill-rule="evenodd" clip-rule="evenodd" d="M55.6781 3.79407C54.9643 3.79407 54.3038 4.20935 54.0268 4.68838H53.9842V3.87399H53.0467V9.09373H54.0268V6.29706C54.0268 5.49835 54.549 4.68838 55.4011 4.68838C56.1469 4.68838 56.6901 5.05071 56.6901 6.13722V9.09373H57.6702V5.98866C57.6702 4.69965 57.0098 3.79407 55.6781 3.79407Z" fill="#AAAAAA"/>
<path fill-rule="evenodd" clip-rule="evenodd" d="M73.0508 2.32312H72.0707V3.87394H71.1543V4.77659H72.0707V7.51492C72.0707 8.58034 72.6566 9.18734 73.7539 9.18734C74.0838 9.18734 74.3182 9.14468 74.5423 9.04907L74.2015 8.20723C74.0628 8.27096 73.9348 8.29254 73.7539 8.29254C73.2959 8.29254 73.0508 8.0263 73.0508 7.4399V4.77659H74.329V3.87394H73.0508V2.32312Z" fill="#AAAAAA"/>
<path fill-rule="evenodd" clip-rule="evenodd" d="M43.3017 1.34058H37.9941V2.34569H40.1515V9.08734H41.1443V2.34569H43.3017V1.34058Z" fill="#AAAAAA"/>
<path fill-rule="evenodd" clip-rule="evenodd" d="M4.47743 4.37555V5.58071H7.36187C7.27558 6.2588 7.04955 6.754 6.70536 7.09819C6.28517 7.51789 5.62866 7.98073 4.47743 7.98073C2.70107 7.98073 1.31303 6.54954 1.31303 4.77367C1.31303 2.9978 2.70107 1.56661 4.47743 1.56661C5.43499 1.56661 6.13465 1.94316 6.65143 2.42758L7.50161 1.57691C6.78038 0.888526 5.82282 0.360962 4.47743 0.360962C2.04505 0.360962 0 2.34129 0 4.77367C0 7.20606 2.04505 9.18638 4.47743 9.18638C5.78997 9.18638 6.78038 8.7559 7.55554 7.94886C8.35179 7.15212 8.59939 6.03277 8.59939 5.12865C8.59939 4.84918 8.57782 4.59079 8.53467 4.37555H4.47743Z" fill="#AAAAAA"/>
<path fill-rule="evenodd" clip-rule="evenodd" d="M12.2045 3.39758C10.6297 3.39758 9.34558 4.59539 9.34558 6.24574C9.34558 7.88531 10.6297 9.0939 12.2045 9.0939C13.7799 9.0939 15.0635 7.88531 15.0635 6.24574C15.0635 4.59539 13.7799 3.39758 12.2045 3.39758ZM12.2045 7.9716C11.3416 7.9716 10.5968 7.25969 10.5968 6.24574C10.5968 5.22101 11.3416 4.51939 12.2045 4.51939C13.0675 4.51939 13.8122 5.22101 13.8122 6.24574C13.8122 7.25969 13.0675 7.9716 12.2045 7.9716Z" fill="#AAAAAA"/>
<path fill-rule="evenodd" clip-rule="evenodd" d="M26.2173 4.03448H26.1742C25.8933 3.69961 25.3539 3.39758 24.6744 3.39758C23.2505 3.39758 22.0106 4.63805 22.0106 6.24574C22.0106 7.84216 23.2505 9.0939 24.6744 9.0939C25.3539 9.0939 25.8933 8.79188 26.1742 8.44671H26.2173V8.84483C26.2173 9.93428 25.6349 10.5168 24.6959 10.5168C23.9301 10.5168 23.4555 9.96664 23.2613 9.50281L22.1719 9.95585C22.4847 10.7109 23.3153 11.6391 24.6959 11.6391C26.1634 11.6391 27.4039 10.7761 27.4039 8.67224V3.54418H26.2173V4.03448ZM24.7827 7.9716C23.9198 7.9716 23.2623 7.23811 23.2623 6.24574C23.2623 5.24259 23.9198 4.51939 24.7827 4.51939C25.6354 4.51939 26.3036 5.25337 26.3036 6.25653C26.3036 7.2489 25.6354 7.9716 24.7827 7.9716Z" fill="#AAAAAA"/>
<path fill-rule="evenodd" clip-rule="evenodd" d="M18.5785 3.39758C17.0036 3.39758 15.7195 4.59539 15.7195 6.24574C15.7195 7.88531 17.0036 9.0939 18.5785 9.0939C20.1538 9.0939 21.4374 7.88531 21.4374 6.24574C21.4374 4.59539 20.1538 3.39758 18.5785 3.39758ZM18.5785 7.9716C17.7156 7.9716 16.9713 7.25969 16.9713 6.24574C16.9713 5.22101 17.7156 4.51939 18.5785 4.51939C19.4414 4.51939 20.1862 5.22101 20.1862 6.24574C20.1862 7.25969 19.4414 7.9716 18.5785 7.9716Z" fill="#AAAAAA"/>
<path fill-rule="evenodd" clip-rule="evenodd" d="M28.3846 0.47876H29.6152V9.09286H28.3846V0.47876Z" fill="#AAAAAA"/>
<path fill-rule="evenodd" clip-rule="evenodd" d="M33.4175 7.9716C32.7811 7.9716 32.3281 7.68085 32.0363 7.10916L35.8445 5.53383L35.7151 5.21023C35.4778 4.57382 34.7551 3.39758 33.2773 3.39758C31.8098 3.39758 30.5909 4.55224 30.5909 6.24574C30.5909 7.84265 31.799 9.0939 33.4175 9.0939C34.7227 9.0939 35.4778 8.29569 35.7906 7.83138L34.8198 7.18418C34.4962 7.65928 34.0539 7.9716 33.4175 7.9716ZM33.3249 4.46497C33.8313 4.46497 34.2604 4.72287 34.4035 5.09304L31.8314 6.15945C31.8314 4.9587 32.6806 4.46497 33.3249 4.46497Z" fill="#AAAAAA"/>
</svg>
