<svg width="64" height="48" viewBox="0 0 64 48" fill="none" xmlns="http://www.w3.org/2000/svg">
<path d="M34.6232 36.1686C34.5614 36.2147 34.4977 36.2588 34.4341 36.3012C34.3831 36.3361 34.334 36.3711 34.2831 36.4042C34.2212 36.4466 34.1594 36.4871 34.0957 36.5276C34.0375 36.5644 33.9811 36.5993 33.9229 36.6343C33.8228 36.6969 33.7209 36.7558 33.6191 36.8128C33.5645 36.8441 33.5081 36.8754 33.4535 36.9049C33.3899 36.9398 33.3262 36.973 33.2607 37.0061C33.208 37.0337 33.1552 37.0595 33.1024 37.0853C33.0388 37.1165 32.9733 37.1478 32.9096 37.1791C32.8296 37.2159 32.7514 37.2509 32.6695 37.284C32.5858 37.319 32.5039 37.354 32.4203 37.3853C32.3839 37.4 32.3457 37.4166 32.3075 37.4294C32.3075 37.4294 32.3093 37.4276 32.3111 37.4258C31.3852 37.7755 30.452 37.9448 29.5551 37.908C29.2168 37.8933 28.8821 37.8546 28.5564 37.7791C27.967 37.6448 27.4322 37.411 26.9556 37.0926C26.217 36.6012 25.6149 35.9055 25.1656 35.0625C24.6253 34.0483 24.3087 32.817 24.2396 31.4568C24.1614 29.9126 24.4052 28.2064 25.0146 26.4671C26.0024 23.6455 27.7524 21.3006 29.7443 19.8374C30.8122 19.0533 31.9509 18.5232 33.0806 18.3078C33.8537 18.1606 34.6232 18.1606 35.3618 18.3299C35.5401 18.3704 35.7147 18.422 35.8857 18.4809C36.7152 18.7717 37.4411 19.2797 38.0414 19.9551C39.1165 21.1662 39.7878 22.9111 39.926 24.9007C39.9624 24.367 39.9624 24.1884 39.9533 23.6565C39.9369 23.3252 39.9242 22.8835 39.8951 22.5522C39.8642 22.1859 39.8187 21.8307 39.7587 21.4828C39.7659 21.5362 39.7732 21.5932 39.7805 21.6503C39.6441 20.7724 39.4167 19.9515 39.1038 19.2042C38.7199 18.295 38.2106 17.4962 37.5848 16.8446C36.9699 16.2022 36.2405 15.7016 35.4091 15.3758C35.1271 15.2654 34.8361 15.1734 34.5305 15.1034C33.9538 14.9709 33.3589 14.9231 32.7604 14.9488C31.7708 14.9912 30.763 15.2415 29.7734 15.6722C28.6037 16.1783 27.4595 16.9366 26.3953 17.8974C24.3797 19.7196 22.6533 22.2743 21.6073 25.2578C21.0343 26.8959 20.7196 28.5119 20.6414 30.0341C20.5668 31.4936 20.7069 32.8667 21.0452 34.0925C21.3381 35.1508 21.7783 36.0969 22.3514 36.8938C22.8753 37.6209 23.512 38.2227 24.2505 38.6681C24.789 38.9939 25.3839 39.2369 26.0278 39.3841C26.3007 39.4467 26.5754 39.4909 26.8555 39.5166C27.7269 39.5995 28.6201 39.5074 29.5133 39.2645C31.216 38.7307 32.2038 38.0884 32.6695 37.7699C32.9478 37.5693 33.3226 37.3043 33.5936 37.0926C34.4486 36.3785 34.585 36.2644 34.9252 35.9257C34.827 36.0012 34.7288 36.0748 34.6287 36.1484C34.6232 36.1521 34.6178 36.1558 34.6123 36.1613H34.6196L34.6232 36.1686ZM11.6148 32.5575C11.3674 31.5857 11.2146 30.5457 11.16 29.4561C11.0382 26.9695 11.4293 24.2216 12.408 21.4294C13.9943 16.8961 16.8066 13.134 20.0101 10.7928C20.8815 10.156 21.7802 9.62592 22.6934 9.21363C23.5975 8.80503 24.5143 8.51054 25.4257 8.34857C26.2698 8.19764 27.112 8.15715 27.9379 8.23813C27.4468 7.99334 26.9192 7.78352 26.3535 7.61787L25.5785 7.47982C25.3566 7.4559 25.1092 7.43565 24.8545 7.41908C24.2142 7.39516 23.5665 7.44301 22.9153 7.55897C22.0057 7.72094 21.0943 8.01359 20.192 8.42587C19.2752 8.84552 18.3711 9.38664 17.4979 10.0382C14.4327 12.3223 11.7494 15.9446 10.2268 20.2957C9.2918 22.9645 8.90978 25.5836 9.01165 27.9597C9.05895 29.0659 9.21357 30.1187 9.46461 31.1016C9.71747 32.0808 10.0686 32.9882 10.5143 33.8035C10.8599 34.4367 11.2637 35.0146 11.7203 35.5263C11.8004 35.6146 11.8804 35.6993 11.9568 35.7803C12.0078 35.8337 12.0587 35.8889 12.1115 35.9386C12.1387 35.9625 12.1678 35.9901 12.1951 36.0159C12.8227 36.5699 13.4613 36.9969 14.0998 37.3172C13.5358 36.7171 13.0483 36.0196 12.639 35.2465C12.2079 34.4312 11.8659 33.5311 11.6166 32.5593L11.6148 32.5575ZM21.5509 39.5608C20.7978 39.1412 20.132 38.5871 19.5608 37.9172C18.9623 37.2141 18.4693 36.3877 18.0873 35.4619C17.6907 34.4956 17.4142 33.4207 17.2723 32.2685C17.1104 30.9654 17.1177 29.5629 17.3069 28.1033C17.4797 26.7689 17.8053 25.3885 18.2929 23.9933C19.3207 21.0576 20.9197 18.4827 22.8116 16.4857C23.8067 15.4347 24.8818 14.5457 25.9969 13.8482C26.9647 13.2445 27.9634 12.7843 28.9639 12.488C29.9099 12.2101 30.8576 12.0794 31.7872 12.1162C32.2565 12.1346 32.7204 12.1935 33.177 12.2966C33.5918 12.3923 33.9884 12.523 34.3667 12.6849C35.1854 13.0346 35.9112 13.5316 36.5442 14.1537C36.1859 13.4966 35.7675 12.9003 35.289 12.3739C35.2472 12.3279 35.2054 12.2818 35.1617 12.2377C35.0908 12.1622 35.018 12.0867 34.9452 12.0131C34.8233 11.8953 34.6796 11.7628 34.5323 11.6321C33.9975 11.1775 33.4062 10.7984 32.7623 10.5057C32.3038 10.2977 31.82 10.1339 31.3124 10.0161C30.934 9.92961 30.5502 9.87071 30.1645 9.83942C29.2877 9.76764 28.3927 9.83758 27.4941 10.0327C26.5554 10.237 25.6149 10.5775 24.6908 11.0431C23.7303 11.5272 22.7898 12.142 21.8875 12.8763C19.0587 15.1715 16.6102 18.6134 15.1803 22.6957C14.3399 25.0958 13.9451 27.4554 13.9488 29.6365C13.9506 30.8163 14.0688 31.9427 14.2981 32.9918C14.5218 34.0189 14.8493 34.9741 15.2749 35.8337C15.6988 36.6895 16.2209 37.4515 16.8321 38.0994C17.4615 38.7675 18.1855 39.3142 18.9987 39.7209C19.5281 39.986 20.0956 40.1921 20.7014 40.3302C20.8033 40.3541 20.9051 40.3725 21.007 40.3927C21.1089 40.4093 21.2108 40.4259 21.3054 40.4424C21.3636 40.4498 21.42 40.4627 21.4782 40.4682C21.7165 40.4903 21.9857 40.5124 22.2622 40.5308C22.8753 40.5492 23.4974 40.5013 24.1196 40.3927C23.8722 40.3559 23.6266 40.3136 23.3864 40.2584C22.7279 40.1075 22.1149 39.87 21.5509 39.5553V39.5608ZM8.98436 19.4287C10.2359 15.917 12.2588 12.9003 14.5727 10.7763C15.4423 9.97562 16.3555 9.30382 17.2833 8.77926C16.481 9.04062 15.677 9.44002 14.8929 9.95722C14.8201 10.0069 14.7492 10.0548 14.6783 10.1026C14.5891 10.1652 14.5 10.2259 14.4108 10.2904C14.4036 10.2959 14.3945 10.3032 14.3854 10.3088C14.2508 10.4082 14.118 10.5112 13.9852 10.618C13.8269 10.7431 13.6668 10.8701 13.5322 10.9787C13.5286 10.9806 13.5267 10.9824 13.5249 10.9843C13.1775 11.2916 12.9574 11.4886 12.7918 11.6395C12.6281 11.7978 12.4189 12.0094 12.086 12.3407C11.7876 12.6739 11.5985 12.8856 11.4566 13.0475C11.3238 13.2095 11.151 13.4248 10.8854 13.7561C10.8817 13.7598 10.8799 13.7617 10.8781 13.7672C10.6234 14.1224 10.4615 14.347 10.3433 14.5144C10.2359 14.6801 10.0922 14.8991 9.87938 15.2323C9.87574 15.2396 9.8721 15.247 9.86664 15.2544C9.65016 15.6335 9.51191 15.8728 9.41186 16.0513C9.32272 16.2225 9.2063 16.4507 9.03348 16.7912C9.02802 16.8023 9.02256 16.8133 9.01711 16.8244C8.83337 17.2385 8.71695 17.498 8.63327 17.6913C8.56232 17.8735 8.46773 18.1146 8.33129 18.4717C8.32584 18.4864 8.32038 18.5029 8.31492 18.5177C8.16575 18.9723 8.07298 19.2539 8.00931 19.4619C7.95655 19.6515 7.88924 19.8999 7.79101 20.2625C7.78555 20.2809 7.78191 20.3012 7.77646 20.3214C7.67277 20.8055 7.61092 21.1 7.56544 21.3208C7.53269 21.5178 7.49267 21.7755 7.43446 22.1491C7.43082 22.173 7.429 22.1951 7.42536 22.2209C7.37261 22.7454 7.34168 23.0583 7.32167 23.2994C7.31076 23.5074 7.29984 23.778 7.28711 24.17C7.28711 24.1976 7.28711 24.2252 7.28711 24.2547C7.28893 24.3651 7.29075 24.4884 7.29257 24.6136C7.29257 24.2271 7.30894 23.8332 7.33986 23.432C7.30712 23.8332 7.29257 24.2289 7.29257 24.6154C7.29257 24.713 7.29439 24.8124 7.2962 24.9099C7.29802 24.9799 7.29984 25.048 7.30166 25.1142C7.3053 25.186 7.30712 25.2596 7.30894 25.3314C7.32713 25.5615 7.34896 25.8449 7.37079 26.1081C7.47266 26.9971 7.66731 27.8254 7.94746 28.5708C7.76918 27.5143 7.71097 26.3695 7.7801 25.1658C7.88379 23.3547 8.2749 21.4092 8.98254 19.4269L8.98436 19.4287ZM32.9624 30.0451C33.1461 30.1979 33.3407 30.3414 33.5518 30.4703C33.952 30.7151 34.3813 30.901 34.8361 31.0316C35.5874 31.2488 36.4005 31.3151 37.2464 31.2451C38.2451 31.1605 39.2857 30.8844 40.3189 30.4335C42.2745 29.5813 44.1955 28.107 45.7109 26.1394C46.544 25.059 47.1771 23.9326 47.6119 22.8135C48.0284 21.7423 48.2613 20.6785 48.3104 19.6772C48.3522 18.814 48.2576 17.9949 48.023 17.2532C47.8101 16.5777 47.4827 15.9685 47.0406 15.4476C46.7168 15.0685 46.3348 14.7372 45.8891 14.4629C45.7018 14.3488 45.5053 14.2457 45.3034 14.1555C44.6721 13.8739 43.9809 13.7175 43.255 13.6733C43.255 13.6733 42.2127 13.6347 41.4686 13.7819H41.4632C41.1539 13.8353 40.841 13.9052 40.5282 13.9936C40.2698 14.0746 39.9242 14.1758 39.6695 14.266C38.8545 14.5844 38.7254 14.6341 38.3852 14.8016C38.478 14.7684 38.5689 14.739 38.6617 14.7114C38.6672 14.7095 38.6726 14.7077 38.6763 14.7059C38.7345 14.6875 38.7927 14.6709 38.8509 14.6543C38.8964 14.6414 38.9437 14.6286 38.9892 14.6157C39.0456 14.601 39.1019 14.5844 39.1583 14.5715C39.2111 14.5586 39.262 14.5476 39.3148 14.5347C39.4057 14.5144 39.4967 14.4942 39.5858 14.4776C39.635 14.4684 39.6841 14.4592 39.7332 14.45C39.7896 14.439 39.846 14.4316 39.9005 14.4224C39.946 14.4151 39.9933 14.4095 40.0388 14.404C40.0934 14.3967 40.1498 14.3893 40.2062 14.3819C40.2753 14.3746 40.3426 14.369 40.4117 14.3635C40.4827 14.358 40.5518 14.3525 40.6227 14.3506C40.6555 14.3488 40.6864 14.347 40.7192 14.3451C40.7192 14.3451 40.7173 14.3451 40.7155 14.3451C41.4941 14.3175 42.2327 14.4261 42.8948 14.6801C43.1459 14.7758 43.3842 14.8899 43.6098 15.028C44.0154 15.2764 44.3574 15.5875 44.6376 15.9446C45.0687 16.4986 45.347 17.1704 45.4744 17.914C45.6272 18.8085 45.5617 19.8097 45.2779 20.8423C44.9541 22.0166 44.352 23.2295 43.4679 24.3762C42.0326 26.237 40.1498 27.5475 38.2979 28.1364C37.3065 28.453 36.3241 28.5616 35.4273 28.4365C34.8124 28.3518 34.2376 28.1567 33.7264 27.8438C33.6027 27.7683 33.4845 27.6855 33.3735 27.599C32.8241 27.172 32.4075 26.6088 32.1256 25.9535C31.6199 24.7774 31.5489 23.3031 31.9346 21.781C31.7763 22.1693 31.7308 22.3037 31.6071 22.7049C31.538 22.9571 31.4379 23.2921 31.3779 23.5442C31.3106 23.8258 31.2578 24.1038 31.216 24.378C31.2233 24.3357 31.2324 24.2934 31.2415 24.2473C31.1269 24.9375 31.0941 25.6094 31.1432 26.2462C31.2051 27.0229 31.3888 27.7481 31.6963 28.3923C31.9982 29.0273 32.4203 29.585 32.9606 30.0396V30.0433L32.9624 30.0451ZM53.002 32.7323C54.3572 30.9727 55.2904 29.1119 55.7998 27.31C56.0381 26.4707 56.1818 25.6443 56.2346 24.8474C56.2873 24.0522 56.2491 23.2847 56.1163 22.5632C56.0144 22.0019 55.8544 21.4699 55.6397 20.9711C55.5997 20.8865 55.5633 20.8018 55.5251 20.7208C55.4996 20.6674 55.476 20.6159 55.4487 20.5625C55.4341 20.5368 55.4196 20.511 55.405 20.4834C55.0739 19.911 54.701 19.4306 54.3008 19.0293C54.5737 19.6202 54.7683 20.2644 54.8829 20.9454C55.003 21.6632 55.0376 22.4233 54.9848 23.2111C54.9302 24.0007 54.7883 24.8161 54.5591 25.6443C54.0389 27.5327 53.0674 29.4893 51.6485 31.3298C49.3455 34.317 46.3166 36.4208 43.3442 37.3613C42.5365 37.6172 41.7324 37.7865 40.9484 37.8656C40.1716 37.943 39.4148 37.9301 38.6926 37.8233C38.0232 37.7239 37.3847 37.5399 36.788 37.2711C37.0954 37.5785 37.4374 37.8693 37.8195 38.1362L38.3652 38.4344C38.5253 38.508 38.7054 38.5853 38.8927 38.6626C39.3657 38.843 39.8605 38.97 40.3772 39.0491C41.0957 39.1577 41.8507 39.1688 42.6256 39.0896C43.4151 39.0086 44.2246 38.8319 45.036 38.5651C47.8902 37.6301 50.7881 35.5999 52.9983 32.7323H53.002ZM39.9078 35.9938C40.7446 35.8742 41.5996 35.6515 42.4564 35.3312C45.136 34.3281 47.8156 32.3753 49.8912 29.6844C51.1101 28.1033 51.9887 26.4376 52.5235 24.8087C52.8128 23.9271 53.002 23.0547 53.0893 22.2117C53.1766 21.3871 53.1657 20.592 53.0583 19.841C52.951 19.0956 52.7509 18.3944 52.4526 17.7538C52.147 17.0968 51.7413 16.5041 51.2338 15.9943C50.9027 15.663 50.5298 15.3648 50.1113 15.1089C50.0404 15.0666 49.9695 15.0261 49.8985 14.9856C49.8257 14.947 49.7548 14.9102 49.6875 14.8734C49.6457 14.8513 49.6056 14.831 49.5656 14.8108C49.3928 14.7353 49.1963 14.6506 48.9944 14.566C48.5414 14.3967 48.063 14.2752 47.5718 14.2016C47.7483 14.2917 47.9211 14.3856 48.0867 14.4868C48.5433 14.7666 48.9416 15.0979 49.2855 15.4752C49.7457 15.9795 50.1059 16.5612 50.3678 17.2053C50.6407 17.8808 50.8063 18.6244 50.8645 19.4122C50.9245 20.2349 50.8645 21.1073 50.688 22.0037C50.4879 23.0178 50.1368 24.0651 49.6347 25.1087C49.1763 26.0621 48.5924 27.0137 47.8829 27.9321C46.3912 29.8666 44.5612 31.3887 42.6547 32.4029C41.6524 32.9366 40.6282 33.3305 39.6222 33.5716C38.7509 33.7796 37.8904 33.8716 37.07 33.8385C36.295 33.8072 35.5546 33.6655 34.8688 33.4041C34.5232 33.2734 34.1903 33.1115 33.8756 32.9182C33.5882 32.7415 33.3244 32.5446 33.0824 32.3274C32.5567 31.8599 32.1365 31.304 31.8181 30.6801C31.9255 31.2617 32.091 31.812 32.3166 32.3274C32.3366 32.3734 32.3584 32.4176 32.3784 32.4599C32.413 32.5335 32.4476 32.609 32.4858 32.6826C32.5476 32.8023 32.6222 32.9366 32.7004 33.071C32.9878 33.5459 33.3353 33.9784 33.7464 34.3594C34.0375 34.6299 34.3576 34.8747 34.7106 35.0919C34.9725 35.2521 35.2436 35.3919 35.5255 35.5134C36.164 35.7877 36.8499 35.9625 37.5684 36.0435C38.3197 36.1282 39.1074 36.1098 39.9115 35.9956L39.9078 35.9938ZM56.5638 29.1009C56.7075 28.4107 56.7657 27.7426 56.7403 27.1149C56.6129 27.9487 56.3746 28.8193 56.0272 29.7028C55.5033 31.0298 54.7319 32.3845 53.7151 33.6894C51.9141 35.9993 49.6584 37.7423 47.4063 38.7473C46.5586 39.1246 45.7109 39.3988 44.8886 39.5571C45.5526 39.5626 46.2511 39.4688 46.9661 39.2792C47.0334 39.2608 47.097 39.2424 47.1625 39.224C47.2444 39.2001 47.3263 39.178 47.4081 39.1504C47.4154 39.1485 47.4227 39.1448 47.4318 39.143C47.5573 39.1025 47.681 39.0602 47.8065 39.0142C47.9557 38.9608 48.1067 38.9056 48.234 38.8596C48.2376 38.8596 48.2395 38.8577 48.2413 38.8559C48.576 38.7141 48.7907 38.6221 48.9507 38.5522C49.1108 38.4749 49.32 38.37 49.6511 38.2062C49.9567 38.0313 50.1496 37.9227 50.2951 37.8362C50.4333 37.7479 50.6152 37.6319 50.8954 37.4497C50.899 37.4478 50.9009 37.446 50.9027 37.4442C51.181 37.2435 51.3556 37.1165 51.4866 37.0208C51.6085 36.9251 51.7686 36.7963 52.0105 36.6012C52.016 36.5975 52.0214 36.5938 52.0251 36.5883C52.2816 36.3601 52.4417 36.2165 52.5617 36.1079C52.6709 36.003 52.8128 35.8613 53.0256 35.6496C53.0329 35.6423 53.0383 35.6349 53.0456 35.6275C53.2857 35.3643 53.4349 35.2005 53.5459 35.0754C53.6441 34.9576 53.7733 34.8011 53.9643 34.5692C53.9715 34.5582 53.9788 34.549 53.9879 34.5379C54.2117 34.2361 54.3481 34.0483 54.45 33.9103C54.5373 33.7814 54.6483 33.614 54.8102 33.3673C54.8174 33.3544 54.8265 33.3416 54.8356 33.3268C55.0321 32.9918 55.1522 32.7875 55.2395 32.6329C55.3123 32.4931 55.4068 32.3108 55.5415 32.0476C55.5487 32.0311 55.5578 32.0145 55.5669 31.9961C55.7343 31.6169 55.8362 31.3906 55.9107 31.2157C55.9708 31.0629 56.0454 30.8623 56.1527 30.5733C56.16 30.5531 56.1672 30.5329 56.1745 30.5089C56.2 30.4261 56.2291 30.3341 56.2582 30.2384C56.2819 30.1647 56.3055 30.0893 56.3291 30.0157C56.3437 29.9623 56.3601 29.9126 56.3746 29.861C56.391 29.8058 56.4074 29.7506 56.4219 29.6954C56.4219 29.6972 56.4219 29.6991 56.4201 29.7009C56.4201 29.6991 56.4201 29.6972 56.4219 29.6954C56.4638 29.5187 56.5183 29.3015 56.5675 29.0991L56.5638 29.1009Z" fill="#00CC7E"/>
</svg>
