<svg width="264" height="48" viewBox="0 0 264 48" fill="none" xmlns="http://www.w3.org/2000/svg">
<path d="M30.3861 35.7758C30.3244 35.8192 30.2627 35.8627 30.201 35.9038C30.153 35.9381 30.1027 35.9701 30.0524 36.0044C29.9907 36.0455 29.9313 36.0844 29.8696 36.1232C29.8124 36.1575 29.7576 36.1941 29.7004 36.2261C29.6021 36.2855 29.5039 36.345 29.4033 36.3998C29.3484 36.4295 29.2959 36.4615 29.241 36.489C29.1793 36.5232 29.1153 36.5552 29.0536 36.5872C29.0033 36.6147 28.9507 36.6375 28.8981 36.665C28.8341 36.6947 28.7724 36.7267 28.7084 36.7564C28.6307 36.7907 28.553 36.825 28.4753 36.8592C28.393 36.8935 28.313 36.9255 28.2307 36.9575C28.1941 36.9712 28.1576 36.9872 28.121 37.001C28.121 37.001 28.121 37.001 28.1233 36.9987C27.2181 37.337 26.3061 37.4992 25.4307 37.465C25.0993 37.4512 24.7724 37.4124 24.4547 37.3415C23.8787 37.2112 23.3576 36.985 22.889 36.6787C22.1667 36.2032 21.5793 35.5335 21.1404 34.7175C20.6124 33.737 20.3039 32.5484 20.2353 31.2341C20.1599 29.7438 20.3976 28.0935 20.9941 26.4135C21.9587 23.6867 23.6684 21.4238 25.6159 20.0112C26.6604 19.2547 27.7736 18.7427 28.8776 18.5347C29.6341 18.393 30.3839 18.393 31.1061 18.5552C31.2821 18.5941 31.4513 18.6444 31.6181 18.7015C32.4296 18.9827 33.1381 19.4741 33.7256 20.1255C34.777 21.2935 35.433 22.9804 35.5679 24.9027C35.6044 24.3884 35.6044 24.2147 35.5953 23.7004C35.5793 23.3804 35.5679 22.953 35.5381 22.633C35.5084 22.281 35.4627 21.9358 35.4056 21.5998C35.4124 21.6524 35.4193 21.705 35.4261 21.7621C35.2913 20.9141 35.0719 20.121 34.7656 19.3987C34.3907 18.521 33.8924 17.7484 33.2821 17.1198C32.681 16.5004 31.9679 16.0158 31.1564 15.7004C30.8821 15.593 30.5964 15.5038 30.2993 15.4375C29.7347 15.3095 29.1542 15.2638 28.569 15.289C27.6021 15.3301 26.617 15.5724 25.6501 15.9884C24.5073 16.4775 23.3896 17.209 22.3496 18.1392C20.3793 19.8992 18.6924 22.3655 17.6707 25.2478C17.1107 26.8295 16.8021 28.3907 16.7267 29.8604C16.6536 31.2707 16.7907 32.5964 17.1221 33.7804C17.4079 34.8021 17.8376 35.7164 18.3999 36.4867C18.9119 37.1884 19.5336 37.7689 20.2559 38.201C20.7839 38.5164 21.3621 38.7495 21.993 38.8935C22.2604 38.9529 22.5279 38.9964 22.8021 39.0215C23.6524 39.1015 24.5279 39.0124 25.3987 38.777C27.0627 38.2627 28.0273 37.641 28.4844 37.3347C28.7564 37.1404 29.1244 36.8844 29.3873 36.681C30.2239 35.9907 30.3564 35.881 30.6879 35.5541C30.5919 35.6272 30.4959 35.6981 30.3976 35.769C30.3907 35.7735 30.3861 35.7758 30.3816 35.7804H30.3884L30.3861 35.7758ZM7.90158 32.2855C7.65929 31.3484 7.51072 30.3427 7.45815 29.289C7.33929 26.8867 7.72101 24.233 8.67644 21.5358C10.2261 17.1564 12.9759 13.5221 16.1073 11.2638C16.9576 10.649 17.8376 10.137 18.729 9.73695C19.6136 9.34152 20.5073 9.0581 21.3987 8.90038C22.2239 8.7541 23.0467 8.71524 23.8536 8.79524C23.3736 8.55752 22.8593 8.35638 22.3039 8.19638L21.545 8.06381C21.3279 8.04095 21.0879 8.02267 20.8364 8.00438C20.2101 7.98152 19.577 8.02724 18.9416 8.13924C18.0524 8.29467 17.161 8.5781 16.281 8.97581C15.385 9.38038 14.5004 9.90381 13.6479 10.5324C10.6536 12.7381 8.02958 16.2375 6.54158 20.441C5.62729 23.0192 5.25472 25.5495 5.35301 27.8444C5.39872 28.9141 5.54958 29.9312 5.79644 30.8775C6.04329 31.8238 6.38615 32.6992 6.82272 33.4855C7.16101 34.0981 7.55415 34.6558 8.00215 35.1495C8.07986 35.2341 8.15758 35.3164 8.23301 35.3964C8.28329 35.4467 8.33129 35.5015 8.38386 35.5495C8.41129 35.5724 8.43872 35.5975 8.46615 35.625C9.07872 36.1598 9.70272 36.5735 10.329 36.8821C9.77815 36.3015 9.30044 35.6295 8.90044 34.8821C8.47986 34.0935 8.14386 33.225 7.90158 32.2878V32.2855ZM17.6113 39.049C16.8753 38.6444 16.2239 38.1072 15.6661 37.4604C15.081 36.7815 14.5987 35.9838 14.2261 35.0901C13.8376 34.1552 13.5679 33.1198 13.4284 32.0067C13.2707 30.7495 13.2776 29.3918 13.4627 27.9838C13.6319 26.6947 13.9496 25.3621 14.4273 24.0135C15.433 21.1792 16.9941 18.6901 18.8433 16.7632C19.8147 15.7484 20.8661 14.889 21.9564 14.2147C22.9027 13.6318 23.8764 13.1861 24.8547 12.9004C25.7782 12.633 26.7039 12.5072 27.6136 12.5415C28.0707 12.5598 28.5256 12.617 28.9713 12.7175C29.3781 12.809 29.7644 12.937 30.1347 13.0924C30.9347 13.4307 31.6456 13.9107 32.2627 14.5118C31.913 13.8787 31.5039 13.3004 31.0376 12.793C30.9964 12.7495 30.9553 12.7038 30.9141 12.6627C30.8433 12.5895 30.7747 12.5164 30.7016 12.4455C30.5827 12.3312 30.441 12.2055 30.2993 12.0775C29.7759 11.6387 29.1999 11.273 28.569 10.9895C28.121 10.7884 27.6479 10.6307 27.1519 10.5164C26.7816 10.4318 26.4067 10.377 26.0296 10.3472C25.1724 10.2787 24.297 10.3472 23.4216 10.5324C22.505 10.729 21.5861 11.0604 20.6833 11.5084C19.7461 11.9747 18.825 12.5712 17.9427 13.2798C15.1793 15.497 12.7839 18.8204 11.3896 22.7655C10.569 25.0832 10.1827 27.3644 10.185 29.4695C10.185 30.6078 10.3016 31.6958 10.5256 32.7107C10.7427 33.7027 11.065 34.6238 11.481 35.4558C11.8947 36.281 12.4044 37.017 13.0033 37.6455C13.6181 38.2901 14.3244 38.8204 15.1199 39.2135C15.6387 39.4695 16.1919 39.6684 16.7839 39.8032C16.8821 39.8261 16.9827 39.8444 17.081 39.8627C17.1816 39.8787 17.2799 39.8947 17.3736 39.9107C17.4307 39.9175 17.4856 39.9289 17.5427 39.9358C17.7759 39.9564 18.0387 39.9769 18.3084 39.9975C18.9073 40.0158 19.5153 39.9701 20.1233 39.8627C19.881 39.8284 19.641 39.785 19.4056 39.7324C18.761 39.5861 18.1621 39.3575 17.6113 39.0535V39.049ZM5.33244 19.6067C6.55529 16.2147 8.53244 13.3004 10.793 11.2478C11.6433 10.4752 12.5347 9.8261 13.4421 9.31867C12.6581 9.57238 11.8741 9.95638 11.1061 10.457C11.0353 10.505 10.9644 10.5507 10.8959 10.5987C10.809 10.6581 10.7221 10.7175 10.6353 10.7792C10.6284 10.7861 10.6193 10.7907 10.6101 10.7975C10.4799 10.8935 10.3496 10.9941 10.2193 11.0947C10.0639 11.2158 9.90844 11.3392 9.77586 11.4421C9.77358 11.4421 9.77129 11.4467 9.76901 11.449C9.43072 11.7461 9.21358 11.9358 9.05129 12.0821C8.89129 12.2352 8.68558 12.4387 8.36329 12.7587C8.07072 13.081 7.88558 13.2867 7.74844 13.4421C7.61815 13.5975 7.45129 13.8055 7.19072 14.1255C7.18844 14.1278 7.18615 14.1324 7.18386 14.1347C6.93472 14.4775 6.77701 14.6947 6.66272 14.857C6.55758 15.017 6.41815 15.2295 6.20786 15.5518C6.20329 15.5587 6.20101 15.5655 6.19415 15.5724C5.98158 15.9381 5.84672 16.169 5.75072 16.3427C5.66386 16.5072 5.54958 16.729 5.38044 17.0581C5.37586 17.0695 5.37129 17.0787 5.36444 17.0901C5.18386 17.4901 5.07186 17.7392 4.98958 17.9267C4.91872 18.1027 4.82729 18.3358 4.69472 18.6787C4.68786 18.6924 4.68329 18.7084 4.67872 18.7244C4.53244 19.1632 4.44329 19.4352 4.37929 19.6364C4.32901 19.8192 4.26044 20.0592 4.16672 20.409C4.16215 20.4272 4.15758 20.4455 4.15301 20.4661C4.05244 20.9347 3.99072 21.2181 3.94729 21.4307C3.91529 21.6204 3.87644 21.8695 3.81929 22.2307C3.81701 22.2535 3.81244 22.2764 3.81015 22.3015C3.75986 22.8067 3.72786 23.1107 3.70958 23.3438C3.70044 23.545 3.68901 23.8078 3.67529 24.185C3.67529 24.2124 3.67529 24.2375 3.67529 24.2672C3.67529 24.3724 3.67986 24.4912 3.67986 24.6147C3.67986 24.2421 3.69586 23.8604 3.72558 23.4741C3.69358 23.8627 3.67986 24.2444 3.67986 24.617C3.67986 24.7107 3.67986 24.8067 3.68444 24.9027C3.68444 24.969 3.68901 25.0352 3.69129 25.0992C3.69358 25.1701 3.69586 25.241 3.69815 25.3095C3.71644 25.5312 3.73701 25.8055 3.75986 26.0592C3.85815 26.9187 4.04786 27.7187 4.32215 28.4387C4.14615 27.4192 4.09129 26.313 4.15758 25.1495C4.25815 23.401 4.64215 21.5221 5.33244 19.6067ZM3.76672 23.0535C3.75301 23.1884 3.73929 23.321 3.73015 23.4512C3.74158 23.3187 3.75301 23.1861 3.76672 23.0535ZM28.7656 29.8581C28.9439 30.0067 29.1359 30.1438 29.3416 30.2672C29.7324 30.5027 30.153 30.6832 30.5964 30.809C31.3301 31.0192 32.1256 31.0832 32.953 31.0147C33.929 30.9324 34.9461 30.665 35.9564 30.2307C37.8673 29.4078 39.7439 27.9838 41.225 26.0821C42.0387 25.0398 42.6581 23.9495 43.081 22.8684C43.4879 21.833 43.7164 20.8067 43.7621 19.8398C43.8033 19.0055 43.7096 18.2147 43.481 17.4992C43.273 16.8455 42.953 16.2581 42.521 15.7552C42.2056 15.3895 41.8307 15.0695 41.3964 14.8044C41.2136 14.6924 41.0216 14.5941 40.825 14.5072C40.2079 14.2352 39.5336 14.0844 38.8227 14.041C38.8227 14.041 37.8033 14.0044 37.0764 14.1461H37.0696C36.7679 14.1987 36.4616 14.265 36.1553 14.3495C35.9039 14.4272 35.5656 14.5255 35.3164 14.6124C34.521 14.9187 34.393 14.969 34.0616 15.129C34.153 15.097 34.2421 15.0695 34.3313 15.0421C34.3359 15.0421 34.3404 15.0398 34.345 15.0375C34.4021 15.0192 34.4593 15.0032 34.5164 14.9872C34.5621 14.9735 34.6079 14.9621 34.6513 14.9507C34.7062 14.937 34.7633 14.921 34.8181 14.9072C34.8684 14.8935 34.9187 14.8844 34.9713 14.873C35.0604 14.8524 35.1473 14.8341 35.2364 14.8181C35.2844 14.809 35.3324 14.7998 35.3804 14.7907C35.4353 14.7815 35.4901 14.7724 35.545 14.7632C35.5907 14.7564 35.6364 14.7495 35.6799 14.745C35.7347 14.7381 35.7896 14.7312 35.8421 14.7244C35.9084 14.7175 35.9747 14.7107 36.0433 14.7061C36.1119 14.6992 36.1804 14.697 36.249 14.6924C36.281 14.6924 36.3107 14.6878 36.3427 14.6878C36.3427 14.6878 36.3427 14.6878 36.3404 14.6878C37.1016 14.6604 37.8239 14.7655 38.4707 15.0101C38.7153 15.1015 38.9484 15.2135 39.1701 15.3461C39.5679 15.5861 39.9016 15.8855 40.1759 16.233C40.5987 16.7678 40.8684 17.417 40.9941 18.1347C41.1427 18.9987 41.0787 19.9655 40.8021 20.9644C40.4867 22.0981 39.897 23.2707 39.033 24.3792C37.6319 26.1758 35.7896 27.4421 33.9816 28.0112C33.0124 28.3175 32.0524 28.4227 31.177 28.3015C30.5759 28.2192 30.0159 28.0318 29.5153 27.7301C29.3941 27.657 29.2799 27.577 29.1701 27.4924C28.633 27.081 28.2261 26.537 27.9496 25.9038C27.4559 24.7678 27.3873 23.3438 27.7644 21.8741C27.609 22.249 27.5656 22.3792 27.4444 22.7655C27.3759 23.0078 27.2799 23.3324 27.2204 23.577C27.1542 23.849 27.1016 24.1164 27.0627 24.3815C27.0696 24.3404 27.0787 24.2992 27.0879 24.2558C26.9759 24.9232 26.9439 25.5701 26.9919 26.1872C27.0536 26.937 27.2319 27.6364 27.5336 28.2604C27.8284 28.873 28.2399 29.4124 28.7679 29.8512L28.7656 29.8581ZM48.3519 32.4547C49.6776 30.7564 50.5873 28.9575 51.0856 27.2181C51.3187 26.4067 51.4581 25.609 51.5107 24.841C51.561 24.073 51.5244 23.3324 51.3964 22.6352C51.2959 22.0935 51.1404 21.5792 50.9301 21.097C50.8913 21.0147 50.8547 20.9324 50.8181 20.8547C50.793 20.8044 50.7701 20.7518 50.7427 20.7015C50.729 20.6764 50.7153 20.6512 50.6993 20.6238C50.3747 20.0707 50.0113 19.6067 49.6204 19.2181C49.8879 19.7895 50.0776 20.4112 50.1896 21.0695C50.3084 21.7621 50.3404 22.4981 50.2879 23.2592C50.2353 24.0204 50.0959 24.809 49.8719 25.609C49.3621 27.433 48.4136 29.321 47.0261 31.0992C44.7747 33.9838 41.8147 36.0158 38.9119 36.9255C38.1233 37.1724 37.337 37.337 36.5713 37.4124C35.8124 37.4878 35.0719 37.4764 34.3679 37.3712C33.7141 37.2752 33.0901 37.097 32.505 36.8387C32.8044 37.1358 33.1381 37.4147 33.513 37.673L34.0479 37.9609C34.2033 38.0318 34.3793 38.1072 34.5621 38.1827C35.0239 38.3564 35.5084 38.4798 36.0113 38.5552C36.7153 38.6604 37.4513 38.6718 38.2101 38.5941C38.9804 38.5164 39.7713 38.3449 40.5667 38.0867C43.3553 37.1838 46.1873 35.2227 48.3496 32.4524L48.3519 32.4547ZM35.5541 35.6044C36.3701 35.4901 37.2067 35.2752 38.0433 34.9644C40.6627 33.9952 43.2799 32.1095 45.3073 29.5107C46.4981 27.9838 47.3576 26.3747 47.8787 24.7998C48.1621 23.9495 48.3473 23.1061 48.4319 22.2924C48.5164 21.497 48.5073 20.7267 48.4021 20.0021C48.297 19.2821 48.1004 18.6032 47.8101 17.9861C47.513 17.3507 47.1153 16.7792 46.6193 16.2878C46.297 15.9678 45.9313 15.6798 45.5221 15.433C45.4536 15.3918 45.3827 15.353 45.3141 15.3141C45.2433 15.2775 45.1724 15.241 45.1084 15.2067C45.0673 15.1861 45.0284 15.1655 44.9896 15.145C44.8204 15.0718 44.6284 14.9895 44.4319 14.9072C43.9884 14.745 43.5221 14.6261 43.0399 14.5552C43.2113 14.6421 43.3804 14.7312 43.5427 14.8295C43.9884 15.0992 44.3793 15.4192 44.7153 15.785C45.1656 16.2718 45.5176 16.8341 45.7736 17.4558C46.041 18.1095 46.2033 18.8272 46.2581 19.5861C46.3153 20.3815 46.2581 21.2227 46.0844 22.089C45.8879 23.0695 45.545 24.0798 45.0559 25.0878C44.6079 26.009 44.0364 26.9278 43.3439 27.8147C41.8856 29.6844 40.0959 31.1541 38.2353 32.1324C37.2547 32.649 36.2559 33.0284 35.273 33.2615C34.4204 33.4627 33.5816 33.5518 32.7793 33.5198C32.0204 33.4901 31.2981 33.353 30.6284 33.1015C30.2901 32.9758 29.9656 32.8181 29.6593 32.633C29.3781 32.4638 29.1199 32.2718 28.8844 32.0638C28.3701 31.6135 27.9587 31.0764 27.6479 30.473C27.753 31.0352 27.9153 31.5678 28.1347 32.0638C28.1553 32.1072 28.1759 32.1507 28.1941 32.1918C28.2284 32.2627 28.2627 32.3358 28.2993 32.4067C28.3587 32.521 28.4341 32.6512 28.5096 32.7815C28.7907 33.241 29.1313 33.657 29.5313 34.025C29.8147 34.2855 30.1279 34.5232 30.473 34.7312C30.729 34.8867 30.9941 35.0215 31.2684 35.1381C31.8924 35.4032 32.5621 35.5724 33.2661 35.6501C33.9999 35.7324 34.7701 35.7141 35.5564 35.6044H35.5541ZM51.833 28.9461C51.9724 28.2787 52.0296 27.6341 52.0044 27.0284C51.881 27.8352 51.6456 28.6741 51.3073 29.5267C50.7953 30.809 50.041 32.1164 49.0467 33.3781C47.2867 35.609 45.081 37.2935 42.8799 38.2649C42.0501 38.6307 41.2227 38.8935 40.4181 39.0467C41.0673 39.0535 41.7507 38.9621 42.4479 38.7792C42.5119 38.761 42.5759 38.7427 42.6399 38.7267C42.7199 38.7038 42.7999 38.681 42.8799 38.6558C42.8867 38.6558 42.8936 38.6512 42.9027 38.649C43.0239 38.6101 43.1473 38.569 43.2684 38.5232C43.4147 38.4707 43.561 38.4181 43.6867 38.3747C43.689 38.3747 43.6913 38.3747 43.6936 38.3724C44.0204 38.2352 44.2307 38.1484 44.3861 38.0775C44.5439 38.0021 44.7473 37.9015 45.0696 37.7438C45.369 37.5747 45.5564 37.4695 45.6982 37.3872C45.833 37.3027 46.0113 37.1907 46.2856 37.0147C46.2879 37.0147 46.2901 37.0124 46.2924 37.0101C46.5644 36.8158 46.7359 36.6947 46.8616 36.601C46.9804 36.5095 47.1359 36.3838 47.3736 36.1941C47.3781 36.1895 47.3827 36.1872 47.3873 36.1804C47.6387 35.9587 47.7941 35.8215 47.9107 35.7164C48.0159 35.6135 48.1576 35.4764 48.3656 35.273C48.3724 35.2661 48.3793 35.2592 48.3861 35.2524C48.6193 34.9987 48.7656 34.8387 48.8753 34.7198C48.9713 34.6055 49.0993 34.4547 49.2844 34.2307C49.2913 34.2215 49.2981 34.2101 49.3073 34.201C49.5244 33.9084 49.6593 33.7278 49.7576 33.5952C49.8421 33.4718 49.9519 33.3072 50.1096 33.0695C50.1164 33.0558 50.1256 33.0444 50.1347 33.0307C50.3267 32.7061 50.4433 32.5095 50.5279 32.361C50.5987 32.2261 50.6901 32.0501 50.8227 31.7964C50.8296 31.7804 50.8387 31.7644 50.8479 31.7461C51.0124 31.3804 51.1107 31.161 51.1839 30.9918C51.241 30.8432 51.3141 30.6512 51.4193 30.3724C51.4261 30.3518 51.433 30.3335 51.4399 30.3107C51.465 30.2307 51.4924 30.1415 51.5221 30.0501C51.545 29.9792 51.5679 29.9061 51.5907 29.8352C51.6044 29.785 51.6204 29.7347 51.6341 29.6867C51.6502 29.6341 51.6661 29.5815 51.6799 29.5267C51.6799 29.5267 51.6799 29.5312 51.6799 29.5335C51.6799 29.5335 51.6799 29.529 51.6799 29.5267C51.721 29.3552 51.7736 29.1472 51.8216 28.9507L51.833 28.9461Z" fill="#00CC7E"/>
<path d="M64.6674 14.8572V18.5143H75.6388V24H79.296V18.5143L75.6388 14.8572H64.6674Z" fill="white"/>
<path d="M64.6674 18.5143H61.0103V33.1429H64.6674V27.6572H75.6388V24H64.6674V18.5143Z" fill="white"/>
<path d="M128.667 14.8572L125.01 18.5143H135.982V33.1429H139.639V18.5143L135.982 14.8572H128.667Z" fill="white"/>
<path d="M125.01 18.5143L121.353 18.5143V33.1429H125.01V18.5143Z" fill="white"/>
<path d="M168.896 14.8572H161.582V18.5143H168.896V14.8572Z" fill="white"/>
<path d="M172.553 14.8572L168.896 18.5143V33.1429H172.553V18.5143H176.21L179.867 14.8572H172.553Z" fill="white"/>
<path d="M145.125 18.5143H141.467V29.4857L145.125 33.1429H157.925L154.267 29.4857H145.125V25.8286H156.096V22.1715H145.125V18.5143Z" fill="white"/>
<path d="M145.125 14.8572V18.5143H156.096V22.1715H159.753V18.5143L156.096 14.8572H145.125Z" fill="white"/>
<path d="M84.7817 14.8572H81.1245V29.4857H84.7817V14.8572Z" fill="white"/>
<path d="M84.7817 29.4857V33.1429H95.7531L99.4103 29.4857H84.7817Z" fill="white"/>
<path d="M104.896 25.8286H101.239V29.4857L104.896 33.1429H119.525L115.867 29.4857H104.896V25.8286Z" fill="white"/>
<path d="M103.067 14.8572L106.725 18.5143H115.867V22.1715H104.896V25.8286H115.867V29.4857H119.525V18.5143L115.867 14.8572H103.067Z" fill="white"/>
<path d="M260.325 20.3429V14.8572H256.667V24C258.496 24 260.325 22.1715 260.325 20.3429Z" fill="#00CC7E"/>
<path d="M236.553 22.1715H227.41C224.386 22.1715 221.925 24.6332 221.925 27.6572C221.925 30.6812 224.386 33.1429 227.41 33.1429H234.725C237.749 33.1429 240.21 30.6812 240.21 27.6572V18.5143H236.553V22.1715ZM236.553 27.6572C236.553 28.6652 235.733 29.4857 234.725 29.4857H227.41C226.402 29.4857 225.582 28.6652 225.582 27.6572C225.582 26.6492 226.402 25.8286 227.41 25.8286H236.553V27.6572Z" fill="#00CC7E"/>
<path d="M223.753 14.8572C223.753 16.6857 225.582 18.5143 227.41 18.5143H236.553V14.8572H223.753Z" fill="#00CC7E"/>
<path d="M193.582 14.8572H185.353V18.5143H193.582C195.095 18.5143 196.325 19.744 196.325 21.2572C196.325 22.7703 195.095 24 193.582 24H185.353V18.5143H181.696V33.1429H185.353V27.6572H193.582C197.111 27.6572 199.982 24.7863 199.982 21.2572C199.982 17.728 197.111 14.8572 193.582 14.8572Z" fill="#00CC7E"/>
<path d="M245.696 22.1715V14.8572H242.039V22.1715C242.039 25.1955 244.501 27.6572 247.525 27.6572H256.667V29.4857H245.696C243.867 29.4857 242.039 31.3143 242.039 33.1429H256.667C258.496 33.1429 260.325 31.3143 260.325 29.4857V27.6572C260.325 25.8286 258.496 24 256.667 24H247.525C246.517 24 245.696 23.1795 245.696 22.1715Z" fill="#00CC7E"/>
<path d="M216.439 29.4857H205.467C205.467 31.3143 207.296 33.1429 209.125 33.1429H220.096C220.096 31.3143 218.267 29.4857 216.439 29.4857Z" fill="#00CC7E"/>
<path d="M205.467 14.8572H201.81V29.4857H205.467V14.8572Z" fill="#00CC7E"/>
</svg>
